<svg xmlns="http://www.w3.org/2000/svg" fill-rule="evenodd" clip-rule="evenodd" image-rendering="optimizeQuality" shape-rendering="geometricPrecision" text-rendering="geometricPrecision" viewBox="0 0 512 512"><path fill="#444" d="M474.92 0H38.59C17.72 0 0 16.5 0 36.84v438.3C0 495.5 11.63 512 32.5 512h436.32c20.9 0 43.18-16.5 43.18-36.86V36.84A36.7 36.7 0 0 0 474.92 0zM195.04 195.04h68.93v35.14h.76c10.5-18.95 41.54-38.18 79.92-38.18 73.65 0 94.21 39.11 94.21 111.54v135.32h-73.15V316.88c0-32.42-12.94-60.88-43.22-60.88-36.77 0-54.3 24.89-54.3 65.76v117.1h-73.15V195.04zM73.14 438.86h73.15V195.04H73.14v243.82zm82.29-329.15a45.7 45.7 0 0 1-45.72 45.72A45.7 45.7 0 0 1 64 109.7 45.7 45.7 0 0 1 109.7 64a45.7 45.7 0 0 1 45.72 45.71z"/></svg>
